<?xml version="1.0" standalone="no"?>
<!DOCTYPE svg PUBLIC "-//W3C//DTD SVG 20010904//EN"
 "http://www.w3.org/TR/2001/REC-SVG-20010904/DTD/svg10.dtd">
<svg version="1.0" xmlns="http://www.w3.org/2000/svg"
 width="1031.000000pt" height="1031.000000pt" viewBox="0 0 1031.000000 1031.000000"
 preserveAspectRatio="xMidYMid meet">
<metadata>
Created by potrace 1.11, written by Peter Selinger 2001-2013
</metadata>
<g transform="translate(0.000000,1031.000000) scale(0.100000,-0.100000)"
fill="#000000" stroke="none">
<path d="M5230 8500 c-163 -35 -302 -97 -419 -187 l-70 -53 -63 15 c-83 19
-264 19 -368 -1 -179 -33 -368 -123 -468 -220 -35 -35 -69 -61 -75 -58 -7 2
-22 26 -35 53 -13 29 -46 71 -82 105 -77 71 -164 101 -269 94 -204 -15 -360
-203 -335 -405 l6 -52 -57 -53 -58 -54 -51 7 c-86 13 -247 9 -321 -6 -192 -41
-326 -170 -391 -377 l-17 -57 -76 -26 c-304 -107 -582 -346 -748 -645 -49 -87
-102 -231 -131 -353 -23 -100 -26 -132 -26 -292 1 -196 10 -255 65 -421 16
-50 50 -131 75 -179 25 -48 44 -89 42 -90 -2 -1 -32 2 -68 7 -48 7 -82 6 -131
-4 l-67 -14 -12 39 c-15 51 -84 119 -136 135 -61 18 -103 15 -160 -12 -106
-49 -153 -176 -105 -281 19 -43 92 -115 116 -115 19 0 19 4 -5 -82 -23 -82
-25 -143 -9 -220 29 -141 123 -259 257 -325 76 -38 76 -38 203 -38 l128 0 7
-60 c3 -33 13 -80 21 -105 8 -25 19 -101 23 -170 10 -167 31 -224 115 -306 55
-54 61 -63 52 -85 -22 -60 -57 -243 -63 -334 -22 -336 118 -659 369 -852 182
-141 470 -233 727 -233 l106 0 12 -44 c6 -24 23 -57 37 -74 50 -60 192 -90
269 -58 l34 14 4 -82 c13 -247 207 -390 548 -403 109 -4 133 -2 187 16 l63 21
60 -41 c95 -65 158 -84 275 -83 84 0 111 5 168 27 93 36 165 86 273 189 90 86
91 87 125 78 74 -22 260 -51 392 -61 377 -28 766 63 1053 246 l50 32 40 -29
c61 -46 165 -95 261 -124 112 -33 268 -38 384 -11 l77 18 51 -50 c64 -63 174
-117 264 -131 181 -28 425 52 474 154 9 19 25 38 37 44 44 20 129 95 157 140
20 31 29 59 29 87 l0 41 63 13 c250 51 477 357 477 643 l0 68 38 0 c59 0 186
36 255 72 35 18 91 61 128 99 182 182 219 467 95 734 l-32 70 47 92 c119 234
181 541 150 751 -12 85 -50 209 -76 248 -13 21 -12 23 44 57 80 50 188 167
233 252 126 241 119 556 -17 802 -24 42 -71 101 -124 154 -70 70 -102 94 -171
127 -138 67 -290 92 -437 73 -45 -6 -93 -13 -107 -17 -25 -6 -26 -5 -16 20 24
65 22 211 -6 322 -5 18 0 22 38 27 109 15 224 101 275 206 25 49 28 68 28 151
0 88 -3 101 -33 162 -64 130 -180 201 -327 202 -69 0 -90 -4 -145 -30 -76 -36
-147 -104 -179 -171 l-22 -48 -105 52 c-58 28 -127 57 -153 64 l-48 12 -38 89
c-171 404 -483 648 -882 688 -206 21 -448 -25 -676 -128 -42 -19 -79 -33 -80
-31 -2 2 -24 47 -50 99 -104 212 -275 372 -473 441 -148 52 -338 63 -494 29z
m-1382 -2880 c20 -13 41 -38 53 -66 18 -39 19 -51 9 -97 -10 -46 -9 -58 8 -97
47 -110 148 -207 277 -270 234 -114 412 -86 541 85 37 47 44 64 39 85 -4 14
-9 44 -12 66 -10 81 53 148 138 148 83 0 139 -59 139 -148 0 -44 -4 -52 -45
-94 -38 -38 -50 -61 -71 -131 -66 -214 -88 -425 -64 -614 20 -163 9 -174 -205
-222 -240 -54 -665 -195 -892 -295 -61 -28 -122 -50 -135 -50 -45 0 -84 36
-127 116 -54 101 -106 169 -200 268 -116 120 -300 264 -321 251 -19 -12 -94
17 -121 46 -93 100 -1 260 134 235 48 -9 93 -53 106 -104 11 -40 14 -42 77
-62 87 -26 186 -26 258 1 108 40 224 178 282 336 25 67 29 92 29 183 0 119
-14 171 -51 191 -32 17 -64 78 -64 121 0 103 128 172 218 118z m1725 -2689
c41 -68 95 -115 177 -155 60 -29 73 -31 170 -31 93 0 111 3 163 27 31 15 81
50 111 78 l54 51 25 -44 c31 -53 101 -118 156 -147 65 -33 159 -53 218 -47
l52 6 -36 -72 c-62 -126 -153 -248 -273 -367 -217 -218 -470 -356 -773 -422
-87 -19 -133 -22 -307 -22 -174 0 -220 3 -307 22 -419 91 -775 342 -998 704
l-45 71 60 56 c76 72 113 148 118 246 l4 71 35 -34 c46 -43 114 -77 187 -92
110 -23 238 20 322 107 25 25 46 44 48 42 2 -2 10 -17 19 -34 32 -64 97 -124
175 -162 73 -37 80 -38 181 -38 99 0 110 2 172 32 108 53 192 155 220 268 l12
48 14 -54 c8 -30 28 -78 46 -108z m-2109 -262 c25 -20 26 -24 20 -82 -7 -76
15 -178 54 -251 97 -179 313 -273 507 -220 33 9 70 19 83 21 50 11 84 -65 45
-99 -56 -48 -249 -72 -367 -44 -214 51 -386 226 -431 441 -26 125 -14 228 28
245 31 12 31 12 61 -11z m3725 -65 c23 -16 23 -21 19 -114 -4 -85 -9 -105 -41
-172 -97 -202 -331 -311 -545 -254 -107 29 -150 79 -106 127 21 24 44 24 114
-1 72 -25 142 -25 226 1 57 18 77 31 129 82 74 74 105 145 105 239 0 50 4 66
22 85 25 27 45 29 77 7z"/>
</g>
</svg>
