<?xml version="1.0" encoding="utf-8"?>
<!-- Generator: Adobe Illustrator 22.1.0, SVG Export Plug-In . SVG Version: 6.00 Build 0)  -->
<svg version="1.1" id="Camada_1" xmlns="http://www.w3.org/2000/svg" xmlns:xlink="http://www.w3.org/1999/xlink" x="0px" y="0px"
	 viewBox="0 0 247.4 208.7" style="enable-background:new 0 0 247.4 208.7;" xml:space="preserve">
<style type="text/css">
	.st0{fill:none;stroke:#000000;stroke-miterlimit:10;}
	.st1{fill:none;stroke:#FFFFFF;stroke-width:0.75;stroke-linecap:round;stroke-linejoin:round;stroke-miterlimit:10;}
	.st2{fill:#9D9D9C;}
	.st3{fill:#80371C;}
	.st4{fill:#FDCE1E;}
	.st5{fill:#FFFFFF;}
	.st6{fill:#AA7536;}
	.st7{fill:none;stroke:#FDCE1E;stroke-width:3;stroke-linecap:round;stroke-linejoin:round;stroke-miterlimit:10;}
</style>
<line class="st1" x1="106" y1="208.7" x2="120.1" y2="209.6"/>
<g>
	<path class="st3" d="M220.2,109.9c16.5-8,10.4-39.6-14.1-34c0.8-1.9,1-5.3-0.1-9c4.7-0.1,8.5-4,8.5-8.7c0-4.8-3.9-8.7-8.7-8.7
		c-3.9,0-7.2,2.6-8.3,6.2c-2.1-1.3-4.5-2.5-7.5-3.3c-6.9-18.8-23.7-23-40.2-14.5c-6.9-18.4-26.4-16.8-36-8c-9.6-3.1-21.1,2.7-23,6.5
		c-0.3-0.1-0.6-0.2-0.8-0.4c-1.1-3.5-4.4-6-8.3-6c-4.8,0-8.7,3.9-8.7,8.7c0,0.8,0.1,1.5,0.3,2.2c-0.9,0.8-1.8,1.7-2.8,2.7
		C57.9,41.7,53.7,46.7,51.8,54C30,60.9,22.3,85,32.7,101.9c0,0.2,0,0.3,0,0.5c-1-0.3-2-0.4-3-0.4c-1.2,0-2.4,0.2-3.5,0.6
		C25.8,100,23.6,98,21,98c-2.9,0-5.2,2.3-5.2,5.2c0,2.4,1.6,4.4,3.8,5c-0.7,1.5-1.1,3.1-1.1,4.9c0,6.1,5,11.1,11.1,11.1
		c1.1,0,2.2-0.2,3.3-0.5c0.1,2.5,0.4,4.3,1.3,6.1c-0.8,6.5,1.9,9.6,4.2,10.7c-5,14.5,0.8,26,9.6,31c8.8,5,17.6,3.8,17.6,3.8
		s-0.4,3.1,3.1,4.2s5.4-0.4,5.4-0.4s-1.5,8,6.9,10.7s12.3,0,12.3,0s7.7,8,17.6-1.1c3.1-3.1,3.1-3.1,3.1-3.1s20.3,6.5,36.8-5
		c9.2,7.3,18.4,3.4,18.4,3.4s3.3,5.1,10.3,4.6c8.3-0.7,8.9-4.5,8.9-4.5s6.1-3.1,5-6.9c7.3,0,13.8-9.2,13-17.2
		c11.9,0,18-12.3,11.5-23.4C222.2,129.4,224.8,117.2,220.2,109.9z"/>
	<circle class="st3" cx="227.6" cy="112.2" r="3.8"/>
	<circle class="st3" cx="153.3" cy="30" r="3.8"/>
	<path class="st3" d="M23.6,96.8c2.1,0,3.8-1.7,3.8-3.8c0-2.1-1.7-3.8-3.8-3.8c-2.1,0-3.8,1.7-3.8,3.8C19.8,95,21.5,96.8,23.6,96.8z
		"/>
</g>
<g>
	<path class="st6" d="M158.9,164.1c-4,0-7.4-2.4-8.9-5.9c-1.8,2.4-4.6,4-7.9,4c-5.4,0-9.7-4.4-9.7-9.7c0,5.4-4.4,9.7-9.7,9.7
		c-4.1,0-7.6-2.5-9-6.1c-1.5,2.4-4.3,4-7.3,4c-2.9,0-5.4-1.4-7-3.5c0.1,0.5,0.1,1,0.1,1.5c0,3.3-1.8,6.1-4.4,7.6
		c6.2,11.6,18.4,19.6,32.5,19.6c14.9,0,27.7-8.8,33.5-21.5C160.2,164,159.6,164.1,158.9,164.1z"/>
</g>
<path class="st7" d="M82.3,165c-0.1,0.6-0.1,1.2-0.1,1.8c0,6.8,5.5,12.2,12.2,12.2c1.7,0,3.3-0.3,4.8-1"/>
<path class="st7" d="M157.4,176.4c0.4,0.2,0.9,0.4,1.4,0.6c5.2,1.7,10.8-1.2,12.5-6.4c0.4-1.3,0.6-2.6,0.4-3.9"/>
<g>
	<path class="st4" d="M83.7,130.7c-4.2-7.7-13.1-12.8-13.1-12.8l3-3.1c4.5,2.5,9.6,2.5,13.1-2.4c2.9-4.1,4.2-8.5,2.5-13.1l4.3-1.4
		c1.4,4.7,5,7.5,9.8,9.1c5.7,1.9,9.8-1.1,12-5.9l4.2,0.8c0,0-4.1,9.3-2.9,18.1L83.7,130.7z M83.7,130.7"/>
	<path class="st4" d="M116.6,119.9c0.1,0.6,0.2,1.1,0.3,1.7c0.4,1.6-0.7,3.2-2.3,3.5c-2.5,0.4-6.6,1.4-13.3,3.6
		c-6.7,2.2-10.6,3.9-12.9,5c-1.5,0.7-3.3,0.1-3.9-1.4c-0.2-0.5-0.5-1-0.8-1.5c3.1-2.6,7.9-5.5,15.6-8S112.6,119.6,116.6,119.9
		L116.6,119.9z M116.6,119.9"/>
	<path class="st4" d="M93.9,95c0.6,1.8-0.4,3.8-2.2,4.4c-1.8,0.6-3.8-0.4-4.4-2.2c-0.6-1.8,0.4-3.8,2.2-4.4
		C91.3,92.1,93.3,93.1,93.9,95L93.9,95z M93.9,95"/>
	<path class="st4" d="M120.9,98.9c0.6,1.8-0.4,3.8-2.2,4.4c-1.8,0.6-3.8-0.4-4.4-2.2c-0.6-1.8,0.4-3.8,2.2-4.4
		C118.3,96.1,120.3,97.1,120.9,98.9L120.9,98.9z M120.9,98.9"/>
	<path class="st4" d="M74.4,114.2c0.6,1.8-0.4,3.8-2.2,4.4c-1.8,0.6-3.8-0.4-4.4-2.2c-0.6-1.8,0.4-3.8,2.2-4.4
		C71.8,111.4,73.8,112.4,74.4,114.2L74.4,114.2z M74.4,114.2"/>
</g>
</svg>
