<?xml version="1.0" standalone="no"?>
<!DOCTYPE svg PUBLIC "-//W3C//DTD SVG 20010904//EN"
 "http://www.w3.org/TR/2001/REC-SVG-20010904/DTD/svg10.dtd">
<svg version="1.0" xmlns="http://www.w3.org/2000/svg"
 width="988.000000pt" height="988.000000pt" viewBox="0 0 988.000000 988.000000"
 preserveAspectRatio="xMidYMid meet">
<metadata>
Created by potrace 1.11, written by Peter Selinger 2001-2013
</metadata>
<g transform="translate(0.000000,988.000000) scale(0.100000,-0.100000)"
fill="#000000" stroke="none">
<path d="M5040 8145 c-59 -10 -119 -26 -160 -42 -8 -4 -17 -7 -20 -8 -56 -19
-128 -54 -135 -65 -3 -5 -15 -10 -26 -10 -10 0 -19 -4 -19 -8 0 -4 -12 -15
-27 -24 -25 -14 -45 -29 -90 -68 -10 -8 -68 -8 -68 0 0 14 -283 20 -345 8 -19
-4 -46 -10 -59 -13 -48 -9 -186 -58 -189 -67 -2 -4 -8 -5 -14 -2 -6 4 -13 3
-17 -2 -8 -11 -80 -53 -103 -61 -10 -3 -18 -9 -18 -14 0 -5 -5 -9 -11 -9 -6 0
-35 -25 -64 -55 -30 -31 -59 -53 -67 -50 -12 5 -38 50 -38 67 0 8 -40 56 -75
90 -29 29 -75 60 -75 53 0 -4 -10 -1 -23 8 -36 23 -128 34 -192 23 -56 -10
-85 -19 -85 -27 0 -5 -7 -9 -15 -9 -31 0 -122 -91 -153 -153 -31 -63 -45 -164
-29 -213 6 -16 -5 -32 -49 -77 l-56 -56 -51 6 c-96 11 -261 6 -327 -11 -107
-28 -168 -64 -247 -146 -29 -30 -103 -176 -106 -208 0 -12 -5 -22 -9 -22 -4 0
-7 -3 -7 -7 4 -22 -4 -31 -28 -38 -71 -17 -320 -141 -353 -175 -3 -3 -31 -25
-63 -49 -71 -52 -173 -154 -233 -232 -48 -63 -138 -213 -149 -251 -4 -12 -18
-44 -31 -70 -14 -27 -22 -48 -19 -48 3 0 -2 -16 -10 -36 -8 -20 -17 -46 -20
-58 -2 -11 -6 -30 -8 -41 -32 -148 -40 -334 -20 -466 17 -106 19 -121 26 -139
3 -8 11 -36 17 -63 7 -26 17 -50 21 -53 5 -3 9 -12 9 -21 0 -9 22 -60 49 -114
50 -98 51 -115 5 -98 -28 10 -162 3 -197 -10 -23 -9 -28 -8 -24 1 5 16 -24 74
-56 110 -54 62 -167 82 -243 44 -28 -14 -93 -79 -95 -95 0 -3 -3 -15 -6 -26
-13 -49 -9 -114 9 -151 21 -45 85 -104 111 -104 21 0 21 -2 -8 -93 -9 -32 -13
-78 -11 -136 3 -74 8 -97 36 -156 40 -85 134 -183 205 -215 28 -13 50 -22 50
-22 0 1 20 -4 45 -12 46 -13 141 -14 197 -2 28 7 32 5 37 -21 3 -15 7 -45 8
-66 1 -21 6 -40 10 -43 4 -3 5 -11 2 -18 -3 -8 -1 -17 5 -21 6 -3 11 -17 11
-31 0 -13 3 -24 8 -24 4 0 8 -42 8 -92 2 -119 8 -150 41 -216 25 -49 94 -122
115 -122 10 0 4 -34 -21 -123 -11 -37 -20 -70 -20 -72 -1 -3 -1 -6 -2 -7 -6
-19 -13 -127 -13 -218 -1 -120 6 -192 23 -248 5 -18 10 -33 10 -35 0 -3 10
-34 24 -72 14 -41 69 -159 77 -165 4 -3 21 -26 38 -52 55 -80 174 -193 246
-231 22 -12 43 -25 46 -29 7 -9 139 -68 153 -68 7 0 25 -7 40 -15 15 -8 45
-17 65 -21 20 -4 41 -9 46 -12 6 -3 19 -7 30 -8 12 -1 35 -5 51 -8 17 -3 68
-8 115 -11 47 -4 97 -8 112 -10 16 -2 30 0 33 5 12 20 43 -3 48 -36 3 -19 15
-47 26 -62 24 -34 94 -71 141 -74 19 -2 38 -7 42 -13 5 -6 8 -6 8 2 0 6 9 9
20 6 11 -3 37 2 58 10 l39 15 1 -51 c2 -116 35 -202 107 -273 36 -35 134 -93
170 -101 28 -6 54 -12 90 -22 22 -6 55 -11 73 -13 17 -1 32 -5 32 -8 0 -6 128
-3 175 5 17 2 50 11 75 20 44 16 45 15 85 -13 52 -37 140 -78 185 -87 42 -9
135 -10 170 -3 63 14 110 29 115 38 4 6 11 8 16 5 5 -4 9 -1 9 5 0 6 4 9 9 6
5 -3 14 1 21 9 7 8 17 15 22 15 5 0 15 6 22 13 7 6 28 23 47 37 18 14 58 50
89 80 87 86 80 83 147 66 91 -23 211 -42 338 -51 44 -4 81 -8 84 -10 2 -2 12
0 22 5 12 7 20 7 24 0 4 -6 10 -8 15 -5 5 3 56 8 112 11 93 5 153 10 153 14 0
1 16 3 35 5 125 15 397 106 490 165 8 5 41 25 74 45 l59 36 41 -28 c22 -15 43
-31 44 -35 2 -5 10 -8 17 -8 8 0 20 -7 29 -15 8 -9 17 -15 18 -15 4 2 59 -19
83 -30 11 -6 30 -12 43 -15 13 -2 31 -6 40 -9 67 -19 209 -25 287 -12 80 13
100 18 111 27 7 6 31 -11 67 -48 32 -31 57 -52 57 -48 0 4 8 1 18 -8 10 -10
47 -29 83 -44 53 -22 80 -26 154 -27 93 0 146 6 203 23 18 5 35 10 37 10 25 3
108 58 133 88 47 57 85 93 99 93 7 0 13 3 13 8 0 4 13 16 29 26 46 31 93 109
96 158 2 37 6 43 26 46 65 7 209 65 209 84 0 4 5 8 12 8 11 0 90 78 132 131
11 13 37 55 57 94 54 101 82 206 83 313 1 56 8 63 56 58 14 -1 30 0 35 3 6 3
15 6 20 7 87 16 146 39 219 87 43 27 119 110 152 164 68 113 95 277 69 423 -8
52 -45 157 -74 212 l-19 38 34 64 c67 126 157 428 140 471 -3 8 -1 15 4 15 13
0 10 261 -3 278 -5 6 -7 12 -4 12 3 0 1 16 -5 36 -5 20 -11 45 -13 55 -2 10
-15 41 -29 69 -14 28 -23 56 -20 63 2 6 27 26 55 42 155 92 268 280 295 491 8
56 7 152 0 204 -3 19 -7 49 -10 65 -2 17 -9 41 -14 55 -5 14 -10 27 -10 30 -3
21 -68 163 -94 205 -13 19 -141 148 -171 173 -9 6 -21 12 -27 12 -5 0 -10 5
-10 10 0 6 -9 10 -20 10 -11 0 -20 4 -20 8 0 7 -80 40 -115 49 -5 1 -21 5 -35
8 -84 21 -279 26 -332 9 -10 -3 -28 -7 -41 -10 -23 -4 -23 -4 -12 54 13 65 9
228 -6 257 -16 30 -3 48 36 52 94 9 211 97 256 192 22 46 26 61 33 136 12 125
-86 277 -211 330 -163 69 -357 -1 -438 -157 -15 -29 -29 -54 -30 -56 -1 -2
-26 11 -54 27 -28 17 -51 27 -51 23 0 -4 -4 -2 -8 4 -7 10 -157 69 -177 69 -5
0 -11 8 -13 18 -4 21 -111 239 -121 247 -3 3 -12 17 -20 31 -7 15 -33 50 -57
77 -24 28 -44 55 -44 61 0 6 -3 11 -7 11 -5 0 -28 19 -53 43 -44 43 -154 127
-165 127 -3 0 -22 11 -43 23 -46 29 -201 83 -262 92 -25 3 -54 9 -64 12 -22 6
-230 6 -261 0 -23 -5 -128 -20 -135 -19 -3 0 -9 -3 -15 -8 -5 -4 -28 -11 -50
-15 -47 -10 -42 -9 -78 -23 -16 -7 -33 -12 -38 -12 -5 0 -17 -4 -27 -9 -53
-28 -154 -72 -156 -69 -2 1 -19 35 -38 73 -49 101 -88 165 -101 165 -6 0 -8 3
-4 6 8 8 -60 85 -130 145 -46 41 -163 108 -208 121 -22 6 -44 15 -50 19 -5 4
-23 10 -40 12 -16 3 -41 9 -55 12 -45 12 -253 11 -320 0z"/>
<path d="M6078 8043 c-32 -9 -55 -24 -73 -47 -27 -35 -42 -105 -29 -134 4 -9
8 -20 8 -24 2 -17 51 -61 82 -74 49 -20 122 -8 155 25 58 60 67 127 25 198
-17 28 -40 45 -71 53 -5 1 -19 6 -30 10 -11 4 -41 1 -67 -7z"/>
<path d="M864 5514 c-50 -32 -73 -76 -69 -130 3 -51 13 -74 43 -103 50 -46
107 -55 177 -26 42 18 78 84 77 142 -2 75 -57 129 -139 138 -40 5 -55 1 -89
-21z"/>
<path d="M9043 4767 c-18 -6 -33 -14 -33 -18 0 -5 -6 -9 -13 -9 -17 0 -50 -58
-55 -95 -2 -16 -4 -34 -4 -40 -3 -22 35 -83 65 -106 31 -23 92 -31 141 -19 40
10 86 69 94 120 2 13 5 26 7 28 6 6 -26 76 -43 95 -34 39 -108 59 -159 44z"/>
<path d="M4228 779 c-7 -5 22 -9 71 -9 46 0 82 2 80 4 -9 9 -138 13 -151 5z"/>
</g>
</svg>
