<?xml version="1.0" standalone="no"?>
<!DOCTYPE svg PUBLIC "-//W3C//DTD SVG 20010904//EN"
 "http://www.w3.org/TR/2001/REC-SVG-20010904/DTD/svg10.dtd">
<svg version="1.0" xmlns="http://www.w3.org/2000/svg"
 width="128.000000pt" height="128.000000pt" viewBox="0 0 128.000000 128.000000"
 preserveAspectRatio="xMidYMid meet">
<metadata>
Created by potrace 1.11, written by Peter Selinger 2001-2013
</metadata>
<g transform="translate(0.000000,128.000000) scale(0.100000,-0.100000)"
fill="#000000" stroke="none">
<path d="M813 1250 c-13 -5 -23 -16 -23 -24 0 -9 -10 -24 -22 -36 -16 -14 -19
-23 -11 -31 14 -14 6 -46 -13 -53 -10 -4 -12 -14 -8 -31 4 -15 1 -32 -7 -42
-8 -8 -14 -29 -15 -46 -1 -16 -7 -33 -14 -37 -6 -4 -11 -13 -10 -21 4 -25 0
-39 -10 -39 -5 0 -21 -12 -35 -26 -14 -14 -32 -23 -40 -20 -8 3 -22 -6 -33
-21 -10 -14 -28 -27 -40 -28 -11 -1 -29 -12 -40 -25 -10 -13 -27 -24 -38 -25
-10 0 -32 -13 -48 -28 -20 -18 -36 -25 -48 -21 -14 4 -21 0 -25 -15 -6 -24
-18 -27 -116 -36 -100 -10 -120 -30 -125 -128 l-4 -76 -32 -3 -31 -3 -7 -90
c-3 -49 -8 -108 -10 -130 l-3 -40 100 0 99 0 8 35 c4 19 10 52 13 73 l6 37 62
0 62 0 -41 -25 c-101 -60 -97 -204 6 -258 50 -26 187 -21 226 9 47 34 66 68
66 116 1 59 -26 106 -78 135 l-39 23 210 0 210 0 -39 -23 c-58 -33 -80 -68
-80 -127 0 -54 18 -87 68 -124 23 -18 42 -21 120 -21 85 0 95 2 128 27 42 32
63 84 55 138 -6 50 -33 85 -81 109 l-40 20 105 3 104 3 9 150 c14 246 12 283
-19 356 -20 46 -31 98 -41 183 -9 80 -18 124 -29 136 -63 69 -286 131 -362
100z m186 -49 c34 -10 83 -33 110 -50 l48 -31 7 -77 c11 -133 13 -125 -54
-157 -33 -16 -60 -35 -60 -42 0 -20 24 -17 70 6 57 29 68 26 90 -25 25 -58 34
-130 25 -199 l-6 -56 -156 0 -155 0 7 32 c9 44 53 133 77 154 20 19 24 39 9
49 -26 15 -94 -97 -127 -209 -9 -29 -12 -30 -114 -47 -67 -11 -164 -18 -267
-18 l-163 -1 0 50 c0 48 12 66 24 35 3 -8 13 -15 21 -15 13 0 15 6 10 29 -5
23 -1 31 19 44 21 14 26 14 36 2 7 -8 19 -15 26 -15 17 0 18 22 3 37 -7 7 -3
15 15 26 21 14 26 14 36 2 22 -27 42 -18 35 14 -8 36 19 50 47 24 24 -22 45
-5 29 24 -8 17 -6 22 14 33 21 11 27 11 43 -3 10 -10 22 -17 25 -17 11 0 8 38
-3 45 -6 4 -5 15 2 30 9 20 14 22 34 15 34 -13 42 9 12 34 -33 28 -27 54 12
48 22 -3 30 0 30 11 0 9 -9 19 -21 22 -14 5 -19 14 -17 28 2 17 10 22 32 22
37 0 46 22 12 31 -14 3 -26 10 -26 14 0 26 15 40 41 40 33 0 40 25 9 33 -12 3
-20 14 -20 26 0 19 6 21 59 21 33 0 87 -9 120 -19z m-699 -626 l0 -45 -90 0
c-50 0 -90 2 -90 5 0 15 25 55 39 61 9 3 41 10 71 14 30 4 58 8 63 9 4 0 7
-19 7 -44z m580 -90 l0 -44 -62 -3 c-48 -2 -63 -7 -63 -18 0 -13 34 -15 233
-18 l233 -2 -3 -23 -3 -22 -575 0 -575 0 -3 22 -3 23 318 2 c275 3 318 5 318
18 0 9 -11 16 -28 18 -24 3 -28 7 -25 30 3 26 7 28 103 43 146 24 135 26 135
-26z m340 0 l0 -45 -155 0 -155 0 0 45 0 45 155 0 155 0 0 -45z m-620 -20 l0
-25 -240 0 -240 0 0 25 0 25 240 0 240 0 0 -25z m-414 -182 c-3 -21 -6 -46 -6
-55 0 -15 -10 -18 -70 -18 l-69 0 5 33 c14 83 8 77 80 77 l67 0 -7 -37z m244
-18 c40 -21 60 -53 60 -96 0 -48 -39 -96 -85 -105 -39 -7 -94 15 -114 48 -21
34 -16 96 11 125 40 44 81 53 128 28z m577 -10 c12 -8 27 -32 34 -54 36 -119
-128 -193 -192 -87 -62 102 56 207 158 141z m-470 0 c13 -9 27 -33 34 -53 15
-50 -7 -104 -50 -127 l-31 -16 20 38 c25 48 25 99 0 141 -22 36 -10 43 27 17z
m567 -16 c18 -21 26 -42 26 -69 0 -42 -39 -100 -67 -100 -13 0 -13 3 2 26 22
34 23 100 1 142 -14 27 -14 32 -2 32 8 0 26 -14 40 -31z"/>
<path d="M886 1073 c-51 -64 -56 -82 -26 -90 11 -3 20 -7 20 -9 0 -2 -14 -32
-32 -68 -18 -37 -28 -70 -25 -80 8 -20 2 -23 164 95 104 77 114 88 84 96 -27
7 -27 7 10 53 17 21 28 43 24 49 -3 7 -41 11 -90 11 l-83 0 -46 -57z m134 -22
c-21 -25 -30 -46 -26 -58 4 -14 -8 -27 -49 -56 -30 -21 -55 -36 -55 -32 0 3
12 28 26 56 25 50 25 51 5 56 -26 7 -26 8 2 43 19 25 29 29 75 29 l53 1 -31
-39z"/>
<path d="M332 230 c-30 -28 -36 -62 -18 -98 33 -63 120 -57 145 11 29 75 -69
141 -127 87z m88 -35 c16 -19 10 -45 -15 -61 -39 -26 -86 31 -53 64 16 16 53
15 68 -3z"/>
<path d="M885 225 c-52 -51 -17 -135 57 -135 39 0 78 40 78 80 0 41 -39 80
-80 80 -19 0 -40 -9 -55 -25z m93 -53 c3 -26 -1 -34 -20 -41 -42 -16 -78 21
-57 60 8 15 19 19 42 17 28 -3 32 -7 35 -36z"/>
</g>
</svg>
